$MeshFormat
2.2 0 8
$EndMeshFormat
$Nodes
33
1 -45000 36000 0
2 -45000 -36000 0
3 45000 -36000 0
4 45000 36000 0
5 -45000 36000 -42000
6 -45000 -36000 -42000
7 45000 -36000 -42000
8 45000 36000 -42000
9 -15000 -7500.000000000002 -12990.38105676658
10 -15000 -6900.000000000002 -11951.15057222525
11 -15000 0 0
12 15000 0 0
13 15000 -6900.000000000002 -11951.15057222525
14 15000 -7500.000000000002 -12990.38105676658
15 1500 -5250.000000000001 -9093.266739736606
16 -1500 -5250.000000000001 -9093.266739736606
17 -1500 -6750.000000000002 -11691.34295108992
18 1500 -6750.000000000002 -11691.34295108992
19 -2.283195499330759e-08 0 0
20 2.283195499330759e-08 -7500.000000000002 -12990.38105676658
21 -2.283195499330759e-08 -6900.000000000002 -11951.15057222525
22 -45000 7.275957614183426e-12 -21000
23 -329.0285638560599 -36000 -21000.00001289476
24 45000 -7.275957614183426e-12 -21000
25 0 36000 -20999.99999999999
26 0 0 -42000
27 6299.999999995434 -3220.19237886467 -5577.536810339695
28 -8426.451169400731 -2661.803408506317 -4610.378743292956
29 518.839064478503 -3493.481202577988 -6050.886938151896
30 -4317.935350824177 -4175.880768514052 -7232.837657416107
31 0 -6000.000000000001 -10392.30484541326
32 -4426.229508196719 14762.9781420765 -20703.76637437256
33 -41.61293717238632 -21933.37245254163 -6635.174703449347
$EndNodes
$Elements
162
1 2 2 101 1 2 11 1
2 2 2 101 1 19 4 1
3 2 2 101 1 11 19 1
4 2 2 101 1 3 19 2
5 2 2 101 1 19 11 2
6 2 2 101 1 4 12 3
7 2 2 101 1 12 19 3
8 2 2 101 1 19 12 4
9 2 2 105 14 2 22 1
10 2 2 105 14 1 22 5
11 2 2 105 14 6 22 2
12 2 2 105 14 5 22 6
13 2 2 105 18 3 23 2
14 2 2 105 18 2 23 6
15 2 2 105 18 7 23 3
16 2 2 105 18 6 23 7
17 2 2 105 22 4 24 3
18 2 2 105 22 3 24 7
19 2 2 105 22 8 24 4
20 2 2 105 22 7 24 8
21 2 2 105 26 1 25 4
22 2 2 105 26 5 25 1
23 2 2 105 26 4 25 8
24 2 2 105 26 8 25 5
25 2 2 105 27 5 6 26
26 2 2 105 27 8 5 26
27 2 2 105 27 6 7 26
28 2 2 105 27 7 8 26
29 2 2 103 101 10 11 28
30 2 2 103 101 17 21 10
31 2 2 103 101 17 10 30
32 2 2 103 101 10 28 30
33 2 2 103 101 11 19 28
34 2 2 103 101 12 13 27
35 2 2 103 101 19 12 27
36 2 2 103 101 18 15 13
37 2 2 103 101 13 15 27
38 2 2 103 101 18 13 21
39 2 2 103 101 15 16 29
40 2 2 103 101 27 15 29
41 2 2 103 101 16 17 30
42 2 2 103 101 29 16 30
43 2 2 103 101 18 21 17
44 2 2 103 101 19 27 29
45 2 2 103 101 28 19 30
46 2 2 103 101 19 29 30
47 2 2 103 102 10 21 9
48 2 2 103 102 21 20 9
49 2 2 103 102 14 20 13
50 2 2 103 102 20 21 13
51 2 2 103 200 15 16 31
52 2 2 103 200 18 15 31
53 2 2 103 200 16 17 31
54 2 2 103 200 17 18 31
55 4 2 1 1 13 24 14 32
56 4 2 1 1 9 22 10 32
57 4 2 1 1 25 5 8 26
58 4 2 1 1 25 1 19 4
59 4 2 1 1 23 6 26 7
60 4 2 1 1 15 31 16 32
61 4 2 1 1 16 31 17 32
62 4 2 1 1 30 29 16 32
63 4 2 1 1 13 12 24 32
64 4 2 1 1 29 15 16 32
65 4 2 1 1 13 15 27 32
66 4 2 1 1 30 10 28 32
67 4 2 1 1 11 10 22 32
68 4 2 1 1 13 18 15 32
69 4 2 1 1 24 26 14 32
70 4 2 1 1 15 29 27 32
71 4 2 1 1 30 16 17 32
72 4 2 1 1 15 18 31 32
73 4 2 1 1 20 13 14 32
74 4 2 1 1 21 13 20 32
75 4 2 1 1 17 31 18 32
76 4 2 1 1 9 26 22 32
77 4 2 1 1 30 17 10 32
78 4 2 1 1 14 23 20 26
79 4 2 1 1 20 23 9 26
80 4 2 1 1 21 9 10 32
81 4 2 1 1 21 20 9 32
82 4 2 1 1 1 11 2 22
83 4 2 1 1 4 3 12 24
84 4 2 1 1 12 13 27 32
85 4 2 1 1 6 5 22 26
86 4 2 1 1 8 24 26 7
87 4 2 1 1 11 28 10 32
88 4 2 1 1 18 21 17 32
89 4 2 1 1 26 24 14 7
90 4 2 1 1 9 6 22 26
91 4 2 1 1 9 22 2 10
92 4 2 1 1 14 13 3 24
93 4 2 1 1 26 14 23 7
94 4 2 1 1 23 6 9 26
95 4 2 1 1 20 14 26 32
96 4 2 1 1 25 8 24 32
97 4 2 1 1 4 25 24 32
98 4 2 1 1 9 20 26 32
99 4 2 1 1 4 24 12 32
100 4 2 1 1 5 26 25 32
101 4 2 1 1 8 26 24 32
102 4 2 1 1 11 2 22 10
103 4 2 1 1 3 13 12 24
104 4 2 1 1 5 22 26 32
105 4 2 1 1 11 22 1 32
106 4 2 1 1 25 26 8 32
107 4 2 1 1 19 27 29 32
108 4 2 1 1 30 28 10 33
109 4 2 1 1 16 29 30 33
110 4 2 1 1 13 14 3 33
111 4 2 1 1 9 10 2 33
112 4 2 1 1 15 16 31 33
113 4 2 1 1 16 17 31 33
114 4 2 1 1 30 19 29 32
115 4 2 1 1 23 14 3 7
116 4 2 1 1 2 23 6 9
117 4 2 1 1 28 19 30 32
118 4 2 1 1 13 27 15 33
119 4 2 1 1 17 30 10 33
120 4 2 1 1 29 16 15 33
121 4 2 1 1 11 19 28 32
122 4 2 1 1 24 3 14 7
123 4 2 1 1 22 2 6 9
124 4 2 1 1 5 1 22 32
125 4 2 1 1 19 12 27 32
126 4 2 1 1 15 18 13 33
127 4 2 1 1 30 17 16 33
128 4 2 1 1 15 27 29 33
129 4 2 1 1 8 4 25 24
130 4 2 1 1 20 14 13 33
131 4 2 1 1 10 9 21 33
132 4 2 1 1 9 20 21 33
133 4 2 1 1 21 20 13 33
134 4 2 1 1 5 25 1 32
135 4 2 1 1 23 3 14 33
136 4 2 1 1 9 2 23 33
137 4 2 1 1 20 23 14 33
138 4 2 1 1 31 18 15 33
139 4 2 1 1 18 31 17 33
140 4 2 1 1 9 23 20 33
141 4 2 1 1 18 17 21 33
142 4 2 1 1 29 27 19 33
143 4 2 1 1 19 30 29 33
144 4 2 1 1 30 19 28 33
145 4 2 1 1 10 17 21 32
146 4 2 1 1 21 18 13 32
147 4 2 1 1 19 3 2 33
148 4 2 1 1 2 3 23 33
149 4 2 1 1 13 18 21 33
150 4 2 1 1 10 21 17 33
151 4 2 1 1 19 4 32 25
152 4 2 1 1 32 4 19 12
153 4 2 1 1 1 19 32 25
154 4 2 1 1 32 19 1 11
155 4 2 1 1 19 28 2 11
156 4 2 1 1 19 2 28 33
157 4 2 1 1 10 2 28 11
158 4 2 1 1 10 28 2 33
159 4 2 1 1 13 27 3 12
160 4 2 1 1 13 3 27 33
161 4 2 1 1 19 3 27 12
162 4 2 1 1 19 27 3 33
$EndElements
